<mxfile host="app.diagrams.net" modified="2023-05-05T09:32:28.286Z" agent="Mozilla/5.0 (Windows NT 10.0; Win64; x64) AppleWebKit/537.36 (KHTML, like Gecko) Chrome/112.0.0.0 Safari/537.36" version="21.2.3" etag="ItRRsTXKq41RsLNUAbzJ" type="github">
  <diagram name="Page-1" id="QAOJ-308cmujbWon8v_p">
    <mxGraphModel>
      <root>
        <mxCell id="0" />
        <mxCell id="1" parent="0" />
      </root>
    </mxGraphModel>
  </diagram>
</mxfile>
